<?xml version="1.0" standalone="no"?><!DOCTYPE svg PUBLIC "-//W3C//DTD SVG 1.1//EN" "http://www.w3.org/Graphics/SVG/1.1/DTD/svg11.dtd"><svg class="icon" width="200px" height="200.00px" viewBox="0 0 1024 1024" version="1.1" xmlns="http://www.w3.org/2000/svg"><path fill="#d81e06" d="M788.992 150.1184H245.6064c-50.7904 0-92.16 41.3696-92.16 92.16v543.3856c0 50.7904 41.3696 92.16 92.16 92.16H788.992c50.7904 0 92.16-41.3696 92.16-92.16V242.2784c0-50.8416-41.3696-92.16-92.16-92.16z m51.2 635.5456c0 28.2112-22.9888 51.2-51.2 51.2H245.6064c-28.2112 0-51.2-22.9888-51.2-51.2V242.2784c0-28.2112 22.9888-51.2 51.2-51.2H788.992c28.2112 0 51.2 22.9888 51.2 51.2v543.3856z"  /><path fill="#d81e06" d="M334.9504 345.5488h-40.704c-11.3152 0-20.48 9.1648-20.48 20.48s9.1648 20.48 20.48 20.48h40.704c11.3152 0 20.48-9.1648 20.48-20.48s-9.216-20.48-20.48-20.48zM757.9648 345.5488H412.5696c-11.3152 0-20.48 9.1648-20.48 20.48s9.1648 20.48 20.48 20.48h345.3952c11.3152 0 20.48-9.1648 20.48-20.48s-9.1648-20.48-20.48-20.48zM334.9504 499.8656h-40.704c-11.3152 0-20.48 9.1648-20.48 20.48s9.1648 20.48 20.48 20.48h40.704c11.3152 0 20.48-9.1648 20.48-20.48s-9.216-20.48-20.48-20.48zM757.9648 499.8656H412.5696c-11.3152 0-20.48 9.1648-20.48 20.48s9.1648 20.48 20.48 20.48h345.3952c11.3152 0 20.48-9.1648 20.48-20.48s-9.1648-20.48-20.48-20.48zM334.9504 654.2336h-40.704c-11.3152 0-20.48 9.1648-20.48 20.48s9.1648 20.48 20.48 20.48h40.704c11.3152 0 20.48-9.1648 20.48-20.48s-9.216-20.48-20.48-20.48zM757.9648 654.2336H412.5696c-11.3152 0-20.48 9.1648-20.48 20.48s9.1648 20.48 20.48 20.48h345.3952c11.3152 0 20.48-9.1648 20.48-20.48s-9.1648-20.48-20.48-20.48z"  /></svg>